/* XPM */
static char *d5ffa47c5b574b62e4357ed969bd10bboG3yEVXvNZb56Uxi[] = {
/* columns rows colors chars-per-pixel */
"64 64 97 2 ",
"   c #47704C",
".  c #4B4637",
"X  c #2D2A23",
"o  c #444137",
"O  c #2C2924",
"+  c #3F3C31",
"@  c #26231D",
"#  c #252117",
"$  c #242221",
"%  c #26221C",
"&  c #2C2822",
"*  c #0B0B0B",
"=  c #46402E",
"-  c #272620",
";  c #4F4B45",
":  c #3E3934",
">  c #221D18",
",  c #46423E",
"<  c #AEAC84",
"1  c #252220",
"2  c #100E0D",
"3  c #545351",
"4  c #525251",
"5  c #2F2F34",
"6  c #464541",
"7  c gray21",
"8  c #484644",
"9  c #2C2C2C",
"0  c #201D1E",
"q  c #22201D",
"w  c #25201A",
"e  c #1D1B1A",
"r  c #191714",
"t  c #3F3C37",
"y  c #474743",
"u  c #474843",
"i  c #52504D",
"p  c #090808",
"a  c #3C3A37",
"s  c #2D2A26",
"d  c #232322",
"f  c #1A1819",
"g  c #5B564E",
"h  c #171615",
"j  c #26251D",
"k  c #272522",
"l  c #45403C",
"z  c #575452",
"x  c #55544C",
"c  c #53514E",
"v  c #43443E",
"b  c #8D7E72",
"n  c #CFB9AA",
"m  c #C1AF9C",
"M  c None",
"N  c #252522",
"B  c #020202",
"V  c gray10",
"C  c #212021",
"Z  c #161513",
"A  c #171616",
"S  c gray7",
"D  c #111110",
"F  c #4C4B4B",
"G  c #1C1B1B",
"H  c #4E4E4D",
"J  c gray6",
"K  c #252423",
"L  c #262627",
"P  c #181818",
"I  c #2F2E2D",
"U  c #141413",
"Y  c #080807",
"T  c #1E1D1D",
"R  c #3E3E3F",
"E  c #0C0B0B",
"W  c #545351",
"Q  c #515050",
"!  c #292928",
"~  c #2D2C2C",
"^  c #343433",
"/  c #494949",
"(  c #464644",
")  c #313133",
"_  c #3C3B3B",
"`  c #3A3836",
"'  c #2A2A2D",
"]  c #434242",
"[  c #3B332D",
"{  c #4F443A",
"}  c #493E37",
"|  c #5B5655",
" . c #AA968D",
".. c #33343A",
"X. c #D4BBAF",
"o. c #85726A",
"O. c #A28C7F",
/* pixels */
"                                                                                                                                ",
"                                                                                                                                ",
"                                                                                                                                ",
"                                                                                                                                ",
"                                                                                                                                ",
"                                                                                                                                ",
"                                                                                                                                ",
"                                                                                                                                ",
"                                                                                                                                ",
"                                                                                                                                ",
"                                                                                                                                ",
"                                                                                                                                ",
"                                                                                                                                ",
"                                                                                                                                ",
"                                                                                                                                ",
"                                                                                                                                ",
"                                                                                                                                ",
"                                                                                                                                ",
"                                                                                                                                ",
"                                                                                                                                ",
"                                                                                                                                ",
"                                                                                                                                ",
"                                                                                                                                ",
"                                                                                                                                ",
"                                                                                                                                ",
"                                                                                                                                ",
"                                                                                                                                ",
"                                                                                                                                ",
"                                                                                                                                ",
"                                                                                                                                ",
"                                                                                                                                ",
"                                                                                      w X                                       ",
"                                                                                    t $ >                                       ",
"                                                                                = & $ V >                                       ",
"                                                                      + X       w q $ @ #                                       ",
"                                                                      % &       @ 0 %                                           ",
"                                                                      % &     . j #                                             ",
"                                                                    = @ 1 o   + -                                               ",
"                                                                    . k ^ , O # @ X <                                           ",
"                                                                      > ' I e r q e #                                           ",
"                                                                      @ L L ! ! ~ $ O                 <                         ",
"                                                                  . m , K _ ] ] ( ( 7 - - @ g   # w > 1 ; .                     ",
"                                                              . ; b n O.[ ` R _ _ ` _ L q A , & 2 2 0 E f l <                   ",
"                                                            o 6 8  .X. .} T A I R ^ L T I G d : A 1 # 2 Y $ g                   ",
"                                                            a R Q  . . .[ E B V I ) U J P V Z ^ C N + r E S l                   ",
"                                                          . 7 R F | Q o.} G E V C K D J G K C ) C * X r ~ G k .                 ",
"                                                          X 5 R / H R } [ I T P C G P V ) ! L C ! * % 2 L L e +                 ",
"                                                          & .._ ] ( ^ I } } V U C G P P K P S D A h j * J U h s                 ",
"                                                        = 7 ) R ] _ ' I { [ Z U T G A Z T P Y E E ~ 9 M Y B * X                 ",
"                                                        s 5 ) ..' ' L [ { G U Z V P A Z A P Y E J C C G Y B * X                 ",
"                                                        - L L C ' K C } ` U A S G P Z Z Z T S E U C K ^ T B p O                 ",
"                                                        1 C L L ~ ' C { ~ P D E G G U Z U Z V D A C C L ^ T p O                 ",
"                                                      o 0 K L ~ ) C ! { K P B Y G T P Z U D P U J E V P S ` f O                 ",
"                                                      X 5 _ H | W ~ [ } G J B B A T T A U S S P U J E Y E G d a                 ",
"                                                    . 6 H W W W ] ) } [ A Y B B J T C P U S S A ^ R _ ! G ~ ] 3 ; <             ",
"                                                    y 8 Q W W H ^ ! { [ G Y B Y Z C T V A S U S T / Q H / F Q W 3 ; =           ",
"                                                    v / W H Q ( I ! { ! P J B A V C T V P A U S D L F H H Q Q W W 3 z .         ",
"                                                  o u / R ` ~ L ! ~ { C P A D E U C C V V P U S S S I F H H H H Q W 4 x .       ",
"                                                  O 9 L ! I ! C T K } T A D Y Y A G C G G P P S S S Z ` F H H H H Q Q 4 c o     ",
"                                                = % 9 I ' ) ) ! Z G ` K G B B B U V C C G V V Z S U S G ] F F F F H H Q 4 i o   ",
"                                                  t R R R R _ ) S E A J E B B B J P C L V V P V U U U D ! / / F F F H H Q Q i + ",
"                                                  6 ( H W / F R S B B B B B B B E A C K T P V G A U U D S ` ( ( ( ( ( / / / F , ",
"                                                + u ( H H W | _ U B B B B B B B Y J T C K P G P T U U U D G ^ ~ ' I ) ) ^ ^ ^ ` ",
"                                                y 8 ( H W | F _ A B B B B B B B Y D C C L G P P T P U U D S ! ! L ! ' ~ ~ I I ) "
};
