/* XPM */
static char *f2f03df0959646d4f4f82a792334086dC4NgnjSgL1ksNcmD[] = {
/* columns rows colors chars-per-pixel */
"64 64 91 1 ",
"  c #47704C",
". c #3F392E",
"X c #403B33",
"o c #2C2923",
"O c #4B4431",
"+ c #393735",
"@ c #514D42",
"# c #3E3B35",
"$ c #201F1D",
"% c #262118",
"& c #242018",
"* c #494842",
"= c #44433D",
"- c #22201E",
"; c #24211C",
": c #1C1815",
"> c #373228",
", c #0E0D0C",
"< c #575650",
"1 c #565553",
"2 c #55534E",
"3 c #56524D",
"4 c #323233",
"5 c #191814",
"6 c #444241",
"7 c #1D1C1A",
"8 c #1C1A18",
"9 c #43403F",
"0 c #221E19",
"q c #181513",
"w c #312F2C",
"e c None",
"r c #272421",
"t c #55524F",
"y c #484744",
"u c #363739",
"i c #28282C",
"p c #1A1714",
"a c #191612",
"s c #272523",
"d c #272623",
"f c #101010",
"g c #191918",
"h c #7F7C75",
"j c #3E3D3A",
"k c #FFFFE9",
"l c #363534",
"z c #95857A",
"x c #171517",
"c c #C2B09E",
"v c gray7",
"b c gray1",
"n c #151513",
"m c #191919",
"M c #292828",
"N c #222122",
"B c #1E1D1C",
"V c #302F2F",
"C c #1B1B1A",
"Z c #2A2A2B",
"A c #50504F",
"S c #101010",
"D c #171716",
"F c gray3",
"G c #252425",
"H c #2C2C2C",
"J c #201F1F",
"K c #3D3D3E",
"L c #4D4C4B",
"P c #535252",
"I c #393939",
"U c #343435",
"Y c #555453",
"T c #323132",
"R c #0C0B0B",
"E c #464544",
"W c #4B4949",
"Q c #3B322C",
"! c #4F433A",
"~ c #494748",
"^ c #414141",
"/ c #5A5654",
"( c #463B33",
") c #3E3630",
"_ c #56514E",
"` c #AF9B8F",
"' c #554940",
"] c #8D7F7B",
"[ c #A28C7E",
"{ c #73615A",
"} c #C0AB9A",
/* pixels */
"                                                                ",
"                                                                ",
"                                                                ",
"                                                                ",
"                                                                ",
"                                                                ",
"                                                                ",
"                                                                ",
"                                                                ",
"                                                                ",
"                                                                ",
"                                                                ",
"                                                                ",
"                                                                ",
"                                                                ",
"                                                                ",
"                                                                ",
"                                                                ",
"                                                                ",
"                                                                ",
"                                                                ",
"                                                                ",
"                                                                ",
"                                                                ",
"                                                                ",
"                                                                ",
"                                                                ",
"                                                                ",
"                                                                ",
"                                                                ",
"                                          ..                    ",
"                                         O;:O                   ",
"                                        O+7-.                   ",
"                                       kpG$%                    ",
"                                   o>  X$ro                     ",
"                                  k%0  o;X                      ",
"                                   &%  >&                       ",
"                                  O;sX &#                       ",
"                                  .rU9#%r&                      ",
"                                  k:MZ8-n:                      ",
"                                   :MHUUUw..#@  .o>.            ",
"                                 Xc3GK^^^64q8=@aq,xw@           ",
"                               X+ze[QTUIKTH$8d=fq0fn+           ",
"                              X9W`e`QRRZIGnm7DUGwX,R-@          ",
"                              +K_]][QRFBZBRvBNTJ,o$Gg>          ",
"                             .4KWY~{(GvBJmnMMGGN,&gV7%          ",
"                             #uK~WI)))vCJmmNBSSD$;SvSa          ",
"                             +UKE^VV'QvDJmnCCFRSVdSFFp          ",
"                            O4TKKUM)!BnDCDDDmFRSJGmbFp          ",
"                            oiVZGNG(QnnDBDDDCDSDNMUmb5          ",
"                            0NNGTMN'MmSvBDnnnCvvmGBVn5          ",
"                            sGGGZGZ!NmbSBBDnvDnRRSFJN5          ",
"                           @-ZIWWGQ(CRbFCJmnnvCHHNvmVy#         ",
"                           *6L//WT(QvFbbDBBDvvvUPA~EA/3<        ",
"                          @9AYYAUH!VCFbFCBBmnvvDKPPYYY/1*       ",
"                          *6_PYLVH'GmRRCBJBCmnvSC^AAAPPY12O     ",
"                          =LW^IVZV!JCnSSmJBCmDvvSNWAAAAPP12O    ",
"                         XlTHVMBJM(BnSFRmJJCCmnvvvTLAAAAAPYt.   ",
"                         oiZZVTZnB)NnbbFDBGBCmmvvSDKWLLLLLLPt.  ",
"                         ouIIKITvRnSFbbbnBGJmCCnvvSNUVTTUUUIK2k ",
"                         *ELPWWKvbbbbbbbSmNNmCmmvvvvMMMHHHHVVj< ",
"                        O=EAA_/KvbbbbbbbFSNGBmmCDvGHNZZMZZHZHT3h",
"                        XyEL_/LKnbbbbbbV_/VNGCCmBDVIBMMMMHZMZHI/",
"                        <WEAY_EInbbbbbm`e}'NMBCmBBTICGMMMZZMZHHI"
};
