/* XPM */
static char *ae99b88f5cdd43b0eecb9095fe70884dxKDMupRREk0AOKP2[] = {
/* columns rows colors chars-per-pixel */
"64 64 101 2 ",
"   c #47704C",
".  c #181612",
"X  c None",
"o  c #474231",
"O  c #27241F",
"+  c #524F4B",
"@  c #2F2B24",
"#  c #28241B",
"$  c #5C513C",
"%  c #2C2B2A",
"&  c #221F18",
"*  c #1D1B1A",
"=  c #2E2C29",
"-  c #252220",
";  c #302C25",
":  c #504C46",
">  c #565554",
",  c #4F4E4A",
"<  c #68665F",
"1  c #2A261E",
"2  c #4E4D47",
"3  c #24211D",
"4  c #464543",
"5  c #424140",
"6  c #484742",
"7  c #403E3C",
"8  c #58534E",
"9  c #342E20",
"0  c #4B4A41",
"q  c #716A61",
"w  c #2C2B2C",
"e  c #262527",
"r  c #262424",
"t  c #837E71",
"y  c #1D1C1B",
"u  c #1F1D1B",
"i  c #221F1D",
"p  c #585654",
"a  c #4D4C49",
"s  c #28251B",
"d  c #161616",
"f  c #383839",
"g  c #161413",
"h  c #2F291A",
"j  c #1B1712",
"k  c #111010",
"l  c #33353A",
"z  c #393835",
"x  c #363639",
"c  c #5D5B59",
"v  c #9B8B81",
"b  c #BFAC9B",
"n  c #0C0C0B",
"m  c #120F0B",
"M  c #10100F",
"N  c #020202",
"B  c #131212",
"V  c #181817",
"C  c #1D1D1D",
"Z  c #201F1F",
"A  c #2A2826",
"S  c #515151",
"D  c #161614",
"F  c #2A292A",
"G  c #2D2C2C",
"H  c #151414",
"J  c #1A1919",
"K  c #111010",
"L  c #252423",
"P  c gray5",
"I  c #565554",
"U  c #272626",
"Y  c #464444",
"T  c #2F2E2F",
"R  c gray22",
"E  c #3E3E3E",
"W  c #070707",
"Q  c #212122",
"!  c #1B1B1B",
"~  c #3C3A3A",
"^  c #323232",
"/  c #57524F",
"(  c gray2",
")  c #3C342F",
"_  c #353535",
"`  c #323336",
"'  c #4F443B",
"]  c #37302C",
"[  c #4D4D4B",
"{  c #524A46",
"}  c #0A0909",
"|  c #CCB6A7",
" . c #473D37",
".. c #514F4D",
"X. c #A99385",
"o. c #B8A498",
"O. c #9D8879",
"+. c #695C57",
"@. c #BBA99D",
"#. c #817573",
"$. c #796D69",
/* pixels */
"                                                                                                                                ",
"                                                                                                                                ",
"                                                                                                                                ",
"                                                                                                                                ",
"                                                                                                                                ",
"                                                                                                                                ",
"                                                                                                                                ",
"                                                                                                                                ",
"                                                                                                                                ",
"                                                                                                                                ",
"                                                                                                                                ",
"                                                                                                                                ",
"                                                                                                                                ",
"                                                                                                                                ",
"                                                                                                                                ",
"                                                                                                                                ",
"                                                                                                                                ",
"                                                                                                                                ",
"                                                                                                                                ",
"                                                                                                                                ",
"                                                                                                                                ",
"                                                                                                                                ",
"                                                                                                                                ",
"                                                                                                                                ",
"                                                                                                                                ",
"                                                                                                                                ",
"                                                                                                                                ",
"                                                                                                                                ",
"                                                                                                                                ",
"                                                                                                                                ",
"                                                                                    o o                                         ",
"                                                                                  o 3 .                                         ",
"                                                                                $ = Q -                                         ",
"                                                                              o = r g #                                         ",
"                                                                      ; h     @ e * O                                           ",
"                                                                      # #     O 3 @                                             ",
"                                                                      & j     h O                                               ",
"                                                                    9 3 - 0   & @                                               ",
"                                                                    s * _ f ; = w ;                                             ",
"                                                                    $ i F U u u V .                                             ",
"                                                                      - F ^ R ~ ~ z 1 & # t $ @ # i :                           ",
"                                                                9 q b 8 A E E E E 5 % y r : . m * k y :                         ",
"                                                              2 6 v | O.] U F ~ R A Z F V 7 r e O * P w t                       ",
"                                                            O 4 [ o.| X.A ( P F _ D P D J F G y O i D u 0                       ",
"                                                            x E / #.$.O.] B K Q L H B Z G U T n & * _ Q &                       ",
"                                                          9 f E X S Y / ) A D Z C J C F C H ! M j g J d #                       ",
"                                                          ; l E Y Y _ ]  .) K ! Z V V Z K } P F % k } W .                       ",
"                                                        $ = ` E Y E G ) ' L B J ! V D J K W P Z L V ( ( .                       ",
"                                                        9 w ` ~ ` T A  .) D H J J D D V J P K Z U ^ H ( .                       ",
"                                                        O e F L U Q U ' A V H V C D D H J H B ! Q Z T B .                       ",
"                                                        . Q L U T F U ' Z J W H C V D B H V K } K W C Z .                       ",
"                                                      $ - L L F ^ Q ]  .Z P N B C C D B B D G T U D J ^ a 2                     ",
"                                                      1 % _ X I ..F  .) H W N W ! Z J B B B U S I [ X I I p <                   ",
"                                                    $ + X / I / E T ' G H N N W ! C ! D H B B T S I I I I I p :                 ",
"                                                    @ 4 ..I I ..^ G ' A ! W W V C C C J H B B H R S S S S I I 8 ,               ",
"                                                    , X / [ [ Y G ] ' Q J K B H C Z ! ! V H B K J Y S S S S S S > + $           ",
"                                                  o 6 Y E _ F Q L G  .C J H W P ! Q C C J V B B K L [ S S S S S S > + o         ",
"                                                  1 % U U G G L H L ) Z B W ( P J Z Q ! ! J H B B K ^ R R R ~ ~ ~ E 5 +         ",
"                                                  @ % ^ T _ ` G B H Q V } N N ( D Z L ! ! J V B B K J F A F G G G T ^ 7 q       ",
"                                                  2 7 Y X Y Y R B ( N N N N N ( B C Q Z J J V H B U L U F F F F G G G ^ a < $   ",
"                                                  + Y [ S ../ E B N N N N N N N } D Q L J J V J J R T Q G F A F G F G G R > <   ",
"                                                o 6 Y [ S I / E H N N N N N W ] { ' U U Z ! J J C ^ T V G A A F F U F G G E c t ",
"                                                0 4 Y [ I / Y ~ H N N N N N ] @.| X.) U U ! J V Q Q C P F G T G L Q U F F G 8 q ",
"                                                , [ X S / [  .) B N N N N N +.| | o.{ L A C C H C C d P J F _ R _ ^ _ _ R ~ 5 + "
};
