/* XPM */
static char *_909537e77c94ce4f02252e230b25b2a9qDK8kQRv6ECzCYY[] = {
/* columns rows colors chars-per-pixel */
"64 64 95 2 ",
"   c #47704C",
".  c None",
"X  c #312D27",
"o  c #4E493C",
"O  c #3E3A32",
"+  c #4E493F",
"@  c #1E1C1C",
"#  c #25211D",
"$  c #12100F",
"%  c #25211C",
"&  c #38322E",
"*  c #272117",
"=  c #201C17",
"-  c #4E4835",
";  c #2F2D29",
":  c #0D0B0B",
">  c #27231F",
",  c #474643",
"<  c #504C42",
"1  c #46423C",
"2  c #524C34",
"3  c #25231C",
"4  c #23211E",
"5  c #252322",
"6  c #343435",
"7  c #201F20",
"8  c #2B2B2D",
"9  c #484644",
"0  c #45413D",
"q  c #3E3C3B",
"w  c #1C1918",
"e  c #363533",
"r  c #262217",
"t  c #111111",
"y  c #55544E",
"u  c #525150",
"i  c #020202",
"p  c #403E37",
"a  c #2D2B25",
"s  c #514E4A",
"d  c #1C1A19",
"f  c #3C3833",
"g  c #47433E",
"h  c #9B867B",
"j  c #302E2C",
"k  c #0E0D0B",
"l  c #54524F",
"z  c #4B4A45",
"x  c #3C3A39",
"c  c #7C6E61",
"v  c #221F1D",
"b  c #211C18",
"n  c #3E3936",
"m  c #F8E6C6",
"M  c #CAB7A7",
"N  c gray7",
"B  c #181818",
"V  c gray10",
"C  c #212122",
"Z  c #020202",
"A  c #141413",
"S  c #1C1B1B",
"D  c #101010",
"F  c #060606",
"G  c #252526",
"H  c #4B4A4A",
"J  c #29292A",
"K  c #313030",
"L  c #151515",
"P  c #353536",
"I  c gray9",
"U  c gray4",
"Y  c #484848",
"T  c #201F1F",
"R  c gray5",
"E  c #545250",
"W  c gray27",
"Q  c #3E3E40",
"!  c #4A4037",
"~  c #1D1D1D",
"^  c #2F2D2D",
"/  c #393837",
"(  c gray30",
")  c #50504D",
"_  c #3D3A38",
"`  c #27221F",
"'  c #2E2926",
"]  c #54473E",
"[  c #5C5552",
"{  c #B9A194",
"}  c #7C7170",
"|  c #6B6362",
" . c #C4B0A4",
".. c #D3BDAF",
"X. c #9C8B81",
/* pixels */
"                                                                                                                                ",
"                                                                                                                                ",
"                                                                                                                                ",
"                                                                                                                                ",
"                                                                                                                                ",
"                                                                                                                                ",
"                                                                                                                                ",
"                                                                                                                                ",
"                                                                                                                                ",
"                                                                                                                                ",
"                                                                                                                                ",
"                                                                                                                                ",
"                                                                                                                                ",
"                                                                                                                                ",
"                                                                                                                                ",
"                                                                                                                                ",
"                                                                                                                                ",
"                                                                                                                                ",
"                                                                                                                                ",
"                                                                                                                                ",
"                                                                                                                                ",
"                                                                                                                                ",
"                                                                                                                                ",
"                                                                                                                                ",
"                                                                                                                                ",
"                                                                                                                                ",
"                                                                                                                                ",
"                                                                                                                                ",
"                                                                                                                                ",
"                                                                                                                                ",
"                                                                                                                                ",
"                                                                                      X % o                                     ",
"                                                                                    < > v *                                     ",
"                                                                                  1 @ ~ d *                                     ",
"                                                                      O r       O @ T w % o                                     ",
"                                                                    2 * #       3 7 4 X                                         ",
"                                                                      * =       % 3 2                                           ",
"                                                                      % b o   2 = +                                             ",
"                                                                    - > & , ; - a X 2                                           ",
"                                                                      # J P j = > w 3                                           ",
"                                                                      = G G T T 5 I #                                           ",
"                                                                    m f ` P / Q . Q q < 2               2 -                     ",
"                                                              2 1 c M h ^ P . . . . . 6 # = 4 g o X 3 # > > 0 +                 ",
"                                                            - g 9 X...{ ] ' / / _ Q P / G d t 5 q $ k @ w U I n +               ",
"                                                            ; . H {  .{ ! B U I P . K G ~ 8 5 D / T k 3 r t F I s 2             ",
"                                                          - q Q E } | h ] N Z R C P ^ A D I C D C J C e + @ U U j <             ",
"                                                          X 6 Q Y E W [ ] ` I D T C C R R A C B B ^ L $ X 4 I A I p             ",
"                                                          % P Q W Y _ & & ^ ' D T T B I L K P K C ^ C : * @ ^ / A 4             ",
"                                                        2 e P Q W . K ' _ ] ' R T C V B B J T G S S G : r $ D J B @ o           ",
"                                                        O 6 P Q Q P J ' ! ! S D B T V A L C C A R R I 5 e t U D R w +           ",
"                                                        ; 8 K J G C C K ] ` L N L V B I L I B N Z U R J K T U F F $ O           ",
"                                                        # C C G K J ~ _ ! B L N I V L I I L B N Z U R C V V U Z F $ O           ",
"                                                      o @ G G G J J T ! _ I B U A S I L L A V ~ R R N ~ C K G F F $ O           ",
"                                                      X 7 G ^ P _ C G ! K ~ R Z L S S L L A D S A R B G C G / K F : X           ",
"                                                      p x W E [ E K ' ! ` L F Z R ~ ~ B L A D L S D D N ~ C S P G : X           ",
"                                                    < z ) E E E . K / ! V R Z Z F S ~ S I A N N I A U U R L U S / 7 X           ",
"                                                    0 Y ) E E ) P J ! ! ~ R Z Z F S ~ ~ B L N A N V V A N U F D B 8 0 -         ",
"                                                  o , H E ( E Y ^ G ! & B N Z F L ~ C S S B A N N A K . Q P C S K W u s o       ",
"                                                  1 9 H Q _ ^ J J J ] ' B L U D N S C ~ V I B N A D B . ( H Y . W ( ) u y o     ",
"                                                2 = J J J ^ G ~ C G ! ` I L D F R B C T B B V L A N D T W H H H ( ( ) ) E y +   ",
"                                                  a J ^ J K K J V S ! ` T U F F R B ~ C V V B S A N D D J Y H H H ( ( ( ) E l O ",
"                                                  f _ _ / _ P ^ A N & T ~ F Z Z F B S G T V B S L N D D N K W Y H H H H ( ( E , ",
"                                                + , W ( ) W W _ A F U F F Z Z Z F B B C G V V B S N N N D L P W Y Y Y Y H ( ( ( ",
"                                                1 9 Y ) ) ) E Q A Z F i i F Z Z Z A B T J ~ B B ~ B N N N D ~ Q W W Y Y Y H H H "
};
