/* XPM */
static char *_07878072bff424ed248008de3b5f6823IT7DGSpmQzmUyAs[] = {
/* columns rows colors chars-per-pixel */
"64 64 96 2 ",
"   c #47704C",
".  c #25221B",
"X  c #2F2B21",
"o  c #413D34",
"O  c #4E483B",
"+  c #4F4835",
"@  c #413D32",
"#  c #342C1E",
"$  c #36342B",
"%  c #4A463B",
"&  c #26221E",
"*  c #1F1C16",
"=  c #494645",
"-  c #25211F",
";  c #272625",
":  c #252018",
">  c #1E1D1A",
",  c #545353",
"<  c #54504C",
"1  c #383535",
"2  c #231E1C",
"3  c #2A2A29",
"4  c #4F4C45",
"5  c #43423C",
"6  c #252420",
"7  c #373635",
"8  c gray2",
"9  c #42413B",
"0  c #191713",
"q  c #34312E",
"w  c #0C0B0A",
"e  c #54514E",
"r  c #565450",
"t  c #4D4C49",
"y  c #383636",
"u  c #1D1A19",
"i  c #2E2A27",
"p  c #3C3C3D",
"a  c #464442",
"s  c #1E1A13",
"d  c #1F1D1D",
"f  c #292622",
"g  c #171514",
"h  c #1D1A15",
"j  c #14110E",
"k  c #020202",
"l  c #21201E",
"z  c #25262A",
"x  c #B5A58F",
"c  c None",
"v  c #CAB5A5",
"b  c #817165",
"n  c #181818",
"m  c #111111",
"M  c #161615",
"N  c #020202",
"B  c #141413",
"V  c gray29",
"C  c gray6",
"Z  c gray10",
"A  c gray11",
"S  c #4D4C4C",
"D  c #070606",
"F  c #242325",
"G  c #313132",
"H  c #515050",
"J  c #1E1D1D",
"K  c gray13",
"L  c #0D0C0D",
"P  c gray15",
"I  c #2F2D2D",
"U  c #0A0A09",
"Y  c #3D3D3F",
"T  c #424142",
"R  c #2B2A2B",
"E  c #343435",
"W  c #504E4C",
"Q  c gray12",
"!  c #2B2826",
"~  c #585452",
"^  c #454444",
"/  c #3D3A38",
"(  c #383735",
")  c #474746",
"_  c #473D34",
"`  c #26221E",
"'  c #3A322C",
"]  c #4F423A",
"[  c #4C4137",
"{  c #1D1A17",
"}  c #51463D",
"|  c #B3A094",
" . c #AD978A",
".. c #6A6263",
"X. c #D4BDB0",
"o. c #907B73",
/* pixels */
"                                                                                                                                ",
"                                                                                                                                ",
"                                                                                                                                ",
"                                                                                                                                ",
"                                                                                                                                ",
"                                                                                                                                ",
"                                                                                                                                ",
"                                                                                                                                ",
"                                                                                                                                ",
"                                                                                                                                ",
"                                                                                                                                ",
"                                                                                                                                ",
"                                                                                                                                ",
"                                                                                                                                ",
"                                                                                                                                ",
"                                                                                                                                ",
"                                                                                                                                ",
"                                                                                                                                ",
"                                                                                                                                ",
"                                                                                                                                ",
"                                                                                                                                ",
"                                                                                                                                ",
"                                                                                                                                ",
"                                                                                                                                ",
"                                                                                                                                ",
"                                                                                                                                ",
"                                                                                                                                ",
"                                                                                                                                ",
"                                                                                                                                ",
"                                                                                                                                ",
"                                                                                                                                ",
"                                                                                      : s                                       ",
"                                                                                    X 6 2 O                                     ",
"                                                                                  o 3 Z 2 O                                     ",
"                                                                      @ X       X ; d l :                                       ",
"                                                                      : .       . > - +                                         ",
"                                                                      X .       . X                                             ",
"                                                                    + * f O   O & #                                             ",
"                                                                    O 2 E 5 o @ * $ +                                           ",
"                                                                      i R G 6 u h 6 :                                           ",
"                                                                      * P P F F ; A &                                           ",
"                                                                  + x 1 ` ( Y T ^ ^ 5 o % X $     + % : o %                     ",
"                                                              # o b v c ' ( T Y Y Y / 7 > 0 3 o - j h 0 g q 4                   ",
"                                                            O a =  .X.| ] ! P E Y Y I I K ! B 7 d U * * C L q %                 ",
"                                                            y p W | |  ._ C N n G / Q M n P m P G K 9 % w U n <                 ",
"                                                          # 1 Y W ..~ o.] B D M K I Z U C Z n Z G n > @ j B C q O               ",
"                                                          X 7 Y V W T W _ ! J M K J M m K I I K G J w $ > ( F 0 $               ",
"                                                          . E Y T ) ( I ' _ ` m K J n Z F R P A J K w s 8 Z P g o               ",
"                                                        # 1 E Y ) Y I R } ] { m J J M B A F M L C M ; f m L C C -               ",
"                                                        $ 3 G / E G ! I } ! M B n Z M B n Z B N L C I R n U N U &               ",
"                                                        - R R F F K K ( [ n B B Z n M M M n M D L m K Q A U D L &               ",
"                                                      + u Q F P G I J ] / M M L n A B M B M Q C C n K F E K D D .               ",
"                                                      @ z F F F R F F [ I A L D n J n M B m n n C n F Q P / P D .               ",
"                                                      $ ; G T S S P ! ] ` M N N n J A M B m B Z B C L A J C / Z .               ",
"                                                    + 9 ) W ~ ~ W E ' _ n L N N L J Q n B B B B n C U U U D K K i               ",
"                                                    4 = W ~ ~ H ( R _ / A U N N U J J A M B B m Z G G I J m J ( = < +           ",
"                                                    9 ) ~ ~ ~ S G ! ] ' Z L N U M Q J A n M B B m R H H V Y T S H , < #         ",
"                                                  @ t W S ^ T ( R R } ! n m D B n Q Q Z n n B B m B E S S S H H H H , r O       ",
"                                                  o p E G G F A F ! _ K n M C D m A K A Z n n m m m M / S V S S H H H , r O     ",
"                                                  & F P R I G P Z Q _ ` { L D D B Z K Q Z Z Z B m m C Z T V V V S S H H H e @   ",
"                                                  y ( E G ( E I B M ' ` { N N N C n Q F A Z n n m m m m F ^ V V V V S S W H e % ",
"                                                  a T ) V T T ( B D L U D N N N U n A F Q n n Z M m m m m I ) V V V V V S W H t ",
"                                                @ 5 ) W H W H / m N N N N N N N D B A F F n n n Z B m m C n Y ) ) V V V V S S W ",
"                                                4 = ) W W ~ ~ / M N 8 k 8 D N N D L Z K P A n n J n m m m C P ) ^ ) V V V V S S "
};
