/* XPM */
static char *_72bae90e76d480fbf6664cf2e1e47feiQwubcJdRxuG1MiY[] = {
/* columns rows colors chars-per-pixel */
"64 64 69 1 ",
"  c #47704C",
". c None",
"X c #38332B",
"o c #5A5751",
"O c #201F20",
"+ c #2E2B27",
"@ c #53514E",
"# c #44433D",
"$ c #26231E",
"% c #302C26",
"& c #24201D",
"* c #40392F",
"= c #272521",
"- c #413A33",
"; c #2A2623",
": c #26231F",
"> c #474542",
", c #3B3B39",
"< c #22201D",
"1 c #0E0D0D",
"2 c #252423",
"3 c #24211D",
"4 c #4F4E4D",
"5 c #51514B",
"6 c #545453",
"7 c #3F3D3C",
"8 c #424342",
"9 c #2E2E2D",
"0 c #222323",
"q c #171616",
"w c #2B2720",
"e c #191616",
"r c #2E2D2D",
"t c #545453",
"y c #333539",
"u c #1C191A",
"i c #4A4846",
"p c #131210",
"a c #98887D",
"s c #CEB8A9",
"d c #927D71",
"f c #C3AF99",
"g c #171716",
"h c #131312",
"j c #232323",
"k c gray1",
"l c #2B2B2C",
"z c #151514",
"x c #191919",
"c c #292727",
"v c #302E2D",
"b c gray11",
"n c #101010",
"m c #201F1F",
"M c #323232",
"N c #464545",
"B c #0C0C0C",
"V c #504E4C",
"C c #3D3B3A",
"Z c #4B4A49",
"A c #525050",
"S c #535251",
"D c #070707",
"F c #403F41",
"G c #4C4238",
"H c #3C3733",
"J c #5E5650",
"K c #3C332D",
"L c #A08D85",
/* pixels */
"                                                                ",
"                                                                ",
"                                                                ",
"                                                                ",
"                                                                ",
"                                                                ",
"                                                                ",
"                                                                ",
"                                                                ",
"                                                                ",
"                                                                ",
"                                                                ",
"                                                                ",
"                                                                ",
"                                                                ",
"                                                                ",
"                                                                ",
"                                                                ",
"                                                                ",
"                                                                ",
"                                                                ",
"                                                                ",
"                                                                ",
"                                                                ",
"                                                                ",
"                                                                ",
"                                                                ",
"                                                                ",
"                                                                ",
"                                                                ",
"                                                                ",
"                                          *$X                   ",
"                                        *&2O&                   ",
"                                   %w   :<;&X                   ",
"                                   +:* X3=                      ",
"                                  -29,3+;+                      ",
"                                  f;cvMr.r$=$# *=$&%-           ",
"                               #@asdvMMCFH9<<O>ue:1q;X          ",
"                              +8VLLLKnBjMjnzmbvlq%0xb:          ",
"                             =yFZAFVHvzxmxzmjmxjg3pmbe*         ",
"                             0MCFClvGvhgbxgxbBDBj9bDD1X         ",
"                            w9lllcjGKgzzbgzzggBnmjljn1=         ",
"                           -2jcv.ccGjgDBbbgzhzgzhghgcO#         ",
"                          -+7NVSNlCHgDkkgmbghhzjCF.vCZ6@o       ",
"                          5iAAAZMlGcxBDnxmbxgzhhmFASSSSt6@o     ",
"                         X,CH.vcjcGmgnBBxmmbbxzhngvZVVAAAS4@o   ",
"                         %9MM..vhzcgnkkkzbjmxxxzhhncNNNNNNZZ4>o ",
"                         >NZVVVChkkkkkkkBzmjbxxxghhzjlllvvvvM.,5",
"                        #8NVSJZCzkkkkkkKJJHjcbxxbgx.cjlcccllllv7",
"                                                                ",
"                                                                ",
"                                                                ",
"                                                                ",
"                                                                ",
"                                                                ",
"                                                                ",
"                                                                ",
"                                                                ",
"                                                                ",
"                                                                ",
"                                                                ",
"                                                                ",
"                                                                ",
"                                                                "
};
