/* XPM */
static char *_82f0207e17e47df994e69b7055ef05dVZsmPycGTTRPQxUf[] = {
/* columns rows colors chars-per-pixel */
"64 64 96 2 ",
"   c #47704C",
".  c #353434",
"X  c #464235",
"o  c #403C32",
"O  c #23201C",
"+  c #464134",
"@  c #262423",
"#  c #1C1913",
"$  c #322D27",
"%  c #2B2926",
"&  c #514C40",
"*  c #322F2A",
"=  c #363020",
"-  c #877D61",
";  c #1C1A18",
":  c #29251E",
">  c #2D2922",
",  c #1E1A16",
"<  c #272623",
"1  c #0F0D0E",
"2  c #28251C",
"3  c #514C46",
"4  c #535251",
"5  c #504F4B",
"6  c #4A4844",
"7  c #2A2725",
"8  c #242221",
"9  c #454442",
"0  c #1D1B19",
"q  c #3C3A3A",
"w  c #35312E",
"e  c #2F2D2A",
"r  c #53514D",
"t  c #4C4C49",
"y  c #423F39",
"u  c #333335",
"i  c #0B0A09",
"p  c #3A3938",
"a  c #998579",
"s  c #181514",
"d  c #1C1A16",
"f  c #2C2D32",
"g  c #454541",
"h  c #4B4A45",
"j  c #222022",
"k  c #292520",
"l  c #23201F",
"z  c #1B1A19",
"x  c #41413C",
"c  c None",
"v  c #C7B69F",
"b  c #817367",
"n  c #CBB8A7",
"m  c #0D0C0A",
"M  c #0D0C0C",
"N  c #89816D",
"B  c #121211",
"V  c #181818",
"C  c #1B1B1B",
"Z  c #1E1D1D",
"A  c #020202",
"S  c #201F20",
"D  c #4A4949",
"F  c #151514",
"G  c #101010",
"H  c #232122",
"J  c #0B0B0B",
"K  c #4F4F4E",
"L  c #161616",
"P  c #343232",
"I  c #4C4C4C",
"U  c #2B2B2C",
"Y  c #312E2D",
"T  c #0E0E0E",
"R  c #131313",
"E  c #3D3C3D",
"W  c #252423",
"Q  c #040404",
"!  c #444343",
"~  c #464646",
"^  c #2A2828",
"/  c #3F3F40",
"(  c #545251",
")  c #070707",
"_  c #252527",
"`  c #493F37",
"'  c #383839",
"]  c #50443B",
"[  c #564F4D",
"{  c #5A5654",
"}  c #3F3730",
"|  c #B69F92",
" . c #BAA89E",
".. c #706868",
"X. c #D4BDB0",
"o. c #A19086",
/* pixels */
"                                                                                                                                ",
"                                                                                                                                ",
"                                                                                                                                ",
"                                                                                                                                ",
"                                                                                                                                ",
"                                                                                                                                ",
"                                                                                                                                ",
"                                                                                                                                ",
"                                                                                                                                ",
"                                                                                                                                ",
"                                                                                                                                ",
"                                                                                                                                ",
"                                                                                                                                ",
"                                                                                                                                ",
"                                                                                                                                ",
"                                                                                                                                ",
"                                                                                                                                ",
"                                                                                                                                ",
"                                                                                                                                ",
"                                                                                                                                ",
"                                                                                                                                ",
"                                                                                                                                ",
"                                                                                                                                ",
"                                                                                                                                ",
"                                                                                                                                ",
"                                                                                                                                ",
"                                                                                                                                ",
"                                                                                                                                ",
"                                                                                                                                ",
"                                                                                                                                ",
"                                                                                                                                ",
"                                                                                      : %                                       ",
"                                                                                    o 7 , +                                     ",
"                                                                                  % 7 C 0 X                                     ",
"                                                                      & o       > 8 j ; $                                       ",
"                                                                      o 2       # l O =                                         ",
"                                                                      > #       O >                                             ",
"                                                                      # ; X   X O =                                             ",
"                                                                    = 0 . p : + 2 $ -                                           ",
"                                                                      2 U . 7 2 < 8 :                                           ",
"                                                                      # W W H H @ V O                                           ",
"                                                                    v w H . E / ! ! x o X + & -       + * +                     ",
"                                                              - o b n a Y . ! / / / E q < , k 3 * O ; , s e 3 -                 ",
"                                                            = 6 9 o.X.| ] ^ Y . / / P . Z @ R u e J m # 1 J @ 3                 ",
"                                                            % q I |  .| ` F A L . / _ Z V Y c V ' L < N ; J J e &               ",
"                                                            p / [ ..{ a ] R Q B H P W T T V C B Y Z @ : % M J C 3               ",
"                                                          * u / D K ! [ ` ^ C R S S V T F W _ H _ ^ G # : @ U R w               ",
"                                                          % ' / ! ~ ' Y Y } ^ B S Z V C Z . U U C Y T # d L . Z , X             ",
"                                                          w . E ~ / Y U ` ] Z T S S V L C ^ V V G C V d 0 J L L s &             ",
"                                                        * f P E ' . ^ Y ] Y L B V Z V F L S V J ) T S q @ J ) ) 1 *             ",
"                                                        % U U _ H H H P ] C F F V V L L F L L ) ) J S H S G Q Q 1 *             ",
"                                                        ; S H _ P U Z ` ` L L T V C F L L F Z G ) T C Z U S Q Q 1 $             ",
"                                                      X < _ _ H ^ _ H ` P C R ) L Z V F F R V C J F H H _ ' U ) i $             ",
"                                                      * 8 ^ ' ! ! W ^ ] ^ C ) A L Z C L F R B C R R F Z H H . W i $             ",
"                                                      y ! I { { ( P P ` C G Q A T Z Z V L R B F L T J J V T V E z $             ",
"                                                    > h [ ( ( ( E Y } ` C J A A ) C Z C L R R B L C R B J ) T C @ y -           ",
"                                                    6 ~ [ ( { K P ^ ] } C T A A G Z Z Z V F B R B _ E / ' W C Y ~ 4 6 =         ",
"                                                  + t I [ D D / U ^ ] U V B A B V Z S C V V F R B R ' K K D ! D K ( 4 5 X       ",
"                                                  o 9 / . . _ S ^ ^ ] W V L G T T C H C C V V R B B L / I I I I K K ( 4 5 X     ",
"                                                  O _ _ ^ Y U H S H ` S V G J ) B C H S C C C F B B B Z ! D D I I K K ( ( r +   ",
"                                                  O P Y U . Y U L L ` W H ) Q Q T V Z W C C V C B B B B W ~ D D D I I K K ( r & ",
"                                                  5 / ! ! / E . B J Z R G A A A ) L C W S V V C L B B B B Y ~ D D D D I I K K t ",
"                                                + g ~ K ( D I E B A A A A A A A ) L C H _ V V V Z R B B B F ' ~ ~ D D D D I K K ",
"                                                o 9 ~ K K ( { E R A A A A A A A Q T V S _ C V V S V B B B G H ! ~ ~ D D D D I I "
};
