/* XPM */
static char *_f86ca2bc51344c68d2a424db5e24862neEMFsmBwSnvB5lC[] = {
/* columns rows colors chars-per-pixel */
"64 64 91 1 ",
"  c #47704C",
". c #353129",
"X c #2F2D28",
"o c #433D33",
"O c #3B362B",
"+ c #2B2A29",
"@ c #67614D",
"# c #2D2922",
"$ c #0F0E0D",
"% c #53514B",
"& c #211D15",
"* c #1E1C1B",
"= c #201E1C",
"- c #24201B",
"; c #5A5551",
": c #ABA59B",
"> c #464442",
", c #292724",
"< c #504B41",
"1 c #211E1B",
"2 c #585856",
"3 c #494745",
"4 c #505049",
"5 c #5B5950",
"6 c #282217",
"7 c #302E2C",
"8 c #38342D",
"9 c #3C3936",
"0 c #535251",
"q c #54544F",
"w c #3E3E3C",
"e c #29292B",
"r c #2F2A26",
"t c #494643",
"y c #1A1614",
"u c #2D2D2B",
"i c #292A28",
"p c #1D1B1A",
"a c #14110D",
"s c #0A0907",
"d c #7B7B73",
"f c #55534F",
"g c #484845",
"h c #494845",
"j c #323538",
"k c None",
"l c #97867B",
"z c #BEAC9B",
"x c #10100D",
"c c #0F0F0E",
"v c #121211",
"b c #151413",
"n c gray1",
"m c gray10",
"M c #171616",
"N c #2A2A2A",
"B c #282828",
"V c #504F4E",
"C c #181818",
"Z c gray32",
"A c #1C1C1B",
"S c #201F1E",
"D c #222222",
"F c #0B0B0B",
"G c #242425",
"H c #2D2D2E",
"J c #373737",
"K c #3C3C3D",
"L c #575452",
"P c #474645",
"I c #343332",
"U c #1D1D1D",
"Y c gray6",
"T c #42403F",
"R c #282625",
"E c #303031",
"W c #070706",
"Q c #2C2B2A",
"! c #4C4B4B",
"~ c #020202",
"^ c #453C35",
"/ c #352E29",
"( c #52473E",
") c #3F3730",
"_ c #CCB6A8",
"` c #817471",
"' c #A58F83",
"] c #BAA699",
"[ c #988479",
"{ c #695A54",
"} c black",
/* pixels */
"                                                                ",
"                                                                ",
"                                                                ",
"                                                                ",
"                                                                ",
"                                                                ",
"                                                                ",
"                                                                ",
"                                                                ",
"                                                                ",
"                                                                ",
"                                                                ",
"                                                                ",
"                                                                ",
"                                                                ",
"                                                                ",
"                                                                ",
"                                                                ",
"                                                                ",
"                                                                ",
"                                                                ",
"                                                                ",
"                                                                ",
"                                                                ",
"                                                                ",
"                                                                ",
"                                                                ",
"                                                                ",
"                                                                ",
"                                                                ",
"                                                                ",
"                                          O&o                   ",
"                                         O,*6                   ",
"                                        .rS*#                   ",
"                                   #6   1D+X@                   ",
"                                  @&-  o+1O                     ",
"                                   8&  .-@                      ",
"                                  o1r< X8                       ",
"                                  O=I>X8,X                      ",
"                                   ,NB*=Ay                      ",
"                                   yBEJJJ+.#8O @#-8o            ",
"                                o<z;RTTTTT7*p46aa$p9@           ",
"                               <tl_'IHEKKQGNmu7U-xF*5           ",
"                              #>!]_'/WFNJUYMmSIGiXcv9           ",
"                              9KL``[/FFSBCYCRGJbs&EG+@          ",
"                             O+K!ZP{)RMSSCCQRADbs1CD=O          ",
"                             XjKP!JI))vASCCDMFYm+=FF$.          ",
"                            :iIKPTHI(QvCUCbmbWFmBUFn$.          ",
"                            o+EKKIB^^CbMCMMCCFYCSHMn$.          ",
"                            #eHBGDR(/bbMAMMbmbYUDBIC$.          ",
"                            -kDGENG(GmFvUCMbbmYYMmME$.          ",
"                            ,GGGND/TDv~vUUMvvMmbvFFAeX          ",
"                           O=HTVVB))CF~WASmbbvDPPJBJ!;5         ",
"                           %3VLLPE^/vn~nCUAMbbvIZZZLLL;q        ",
"                          .>VLLVIQ(QmWnYAUUCMvvbKZZZZLL2%:      ",
"                         :83ZVZPEH(DCFYCASAACvvvmTVZZZZZ2%@     ",
"                         @t!PKEBB/^SmMFFmDUUmMvvvD!VZVZZZ04o    ",
"                         .7NNHNSmR^SbFWFmSDmmCbvvvIVVVVVVV0fo   ",
"                         .uHNEENvm/SvnnWMUGAACMvvvCJIIJJJJKT4:  ",
"                         <wKTTKIvWWWnnnnbUDSCACbvvYDBBBQHHHEw5  ",
"                         %P!L!VTvn~nnnnnFCDDmmCCvCQDBNBQNHQHI>d@",
"                        @hPVVLLKbnnnnn~WbUGGSCCmMDTDRNBBNQNQHJ2%",
"                        .gPVLLPKbnnnn~Y`'[IGRmACUBJRUQBBBNBNHHK;",
"                       :q3PVLVTJb~nnn}^__](DNUmMSDBUYHGNBGGBNNQP"
};
