/* XPM */
static char *_612a8063dfd4434c7f5b8c43fccd40bvR1pxC23wadunUuv[] = {
/* columns rows colors chars-per-pixel */
"64 64 59 1 ",
"  c #47704C",
". c None",
"X c #231F1A",
"o c #48453F",
"O c #353228",
"+ c #383630",
"@ c #34312A",
"# c #242220",
"$ c #3B332B",
"% c #333131",
"& c #52514E",
"* c #020303",
"= c #3E3E3F",
"- c #242220",
"; c #252221",
": c #2C2824",
"> c #353431",
", c #222222",
"< c #231F1D",
"1 c #443F35",
"2 c #525150",
"3 c #484744",
"4 c #514D4B",
"5 c #23201B",
"6 c #393935",
"7 c #13110F",
"8 c #222120",
"9 c #1D1B19",
"0 c #141313",
"q c #565553",
"w c #464641",
"e c #403F3A",
"r c #F2DABF",
"t c #927E71",
"y c #9A8A7E",
"u c #D1BBAC",
"i c #25201A",
"p c #151514",
"a c #121211",
"s c #191918",
"d c #171716",
"f c #282727",
"g c #040303",
"h c #3E3B3A",
"j c #1C1B1B",
"k c #201F1F",
"l c #0B0B0B",
"z c #4E4D4C",
"x c #312F2E",
"c c #50504F",
"v c #2B2B2D",
"b c #393735",
"n c #232323",
"m c #4A4948",
"M c #555251",
"N c #434242",
"B c #2F2B29",
"V c #4D4239",
"C c #A49188",
/* pixels */
"                                                                ",
"                                                                ",
"                                                                ",
"                                                                ",
"                                                                ",
"                                                                ",
"                                                                ",
"                                                                ",
"                                                                ",
"                                                                ",
"                                                                ",
"                                                                ",
"                                                                ",
"                                                                ",
"                                                                ",
"                                                                ",
"                                                                ",
"                                                                ",
"                                                                ",
"                                                                ",
"                                                                ",
"                                                                ",
"                                                                ",
"                                                                ",
"                                                                ",
"                                                                ",
"                                                                ",
"                                                                ",
"                                                                ",
"                                                                ",
"                                                                ",
"                                          +X$                   ",
"                                        O#,<@                   ",
"                                   O+  $;;>@                    ",
"                                   Xi$ OX                       ",
"                                  1;%6XX<X                      ",
"                                  r5fx.%B-:@OO1 $o::$           ",
"                               o4yutx.bhNh%8-,e#-#70<+          ",
"                              >=zCCCbaln.vpaksf.j9:0p-o         ",
"                             o=hmMNMhBpskjpsfnjfd7XjfdX         ",
"                             #.hNhxxV.ppksddkplld%8lll9         ",
"                            +,vvvfnhhsppjdppdsllskfnag#         ",
"                           1;nfv.ffVfdlljjdpapsaapjdfs5         ",
"                           >%Nzcmvbhslggpkjdpaajvxfjn.=4@       ",
"                          +3MMMz.BVBslglskjsdpaanNczzcMMq&o     ",
"                         @6hhb.ffBVksalldkkjjspaadxmzzcccM2&o   ",
"                         +.xx.xfpsxjpgggpjnkssspaaanNzzzzzcc2&o ",
"                         wNmzmmhaggggggglpknjsssdaaakbbbbhhhhh=&",
"                        O3mcMMzhpgg****afxBnfjssjdapjkfffvvvvvxb",
"                                                                ",
"                                                                ",
"                                                                ",
"                                                                ",
"                                                                ",
"                                                                ",
"                                                                ",
"                                                                ",
"                                                                ",
"                                                                ",
"                                                                ",
"                                                                ",
"                                                                ",
"                                                                ",
"                                                                "
};
