/* XPM */
static char *_fe76938fb704a08b89f462f99e98bafw6GybEyNOJDm6Nm7[] = {
/* columns rows colors chars-per-pixel */
"64 64 86 1 ",
"  c #47704C",
". c None",
"X c #4E4B41",
"o c #28241D",
"O c #3B3629",
"+ c #444034",
"@ c #352910",
"# c #3E3A2E",
"$ c #1A1917",
"% c #191715",
"& c #2E2E2A",
"* c #292622",
"= c #2B2924",
"- c #24211D",
"; c #191613",
": c #191713",
"> c #4C4B47",
", c #48463F",
"< c #47443F",
"1 c #2C2B2A",
"2 c #201C18",
"3 c #403C38",
"4 c #25221D",
"5 c #545352",
"6 c white",
"7 c #8D8463",
"8 c #484644",
"9 c #45453F",
"0 c #39393A",
"q c #241F14",
"w c #201E1E",
"e c #37342D",
"r c #54524E",
"t c #4E4D49",
"y c #343233",
"u c #413F3D",
"i c #3F3C34",
"p c #2F2E2E",
"a c #201E1B",
"s c #13120E",
"d c #1C1B1A",
"f c #575551",
"g c #54524E",
"h c #2B2B2C",
"j c #CDB9A8",
"k c #897A6E",
"l c #A18C7E",
"z c #C0AE99",
"x c #0C0B0B",
"c c #110F0E",
"v c #181818",
"b c #121211",
"n c #141413",
"m c #020202",
"M c #1F1E1D",
"N c #242323",
"B c #202020",
"V c #2A2929",
"C c #161615",
"Z c #464645",
"A c #0C0C0C",
"S c gray10",
"D c #4C4C4B",
"F c gray3",
"G c #101010",
"H c gray11",
"J c #545251",
"K c #51504E",
"L c #2F2F31",
"P c #4F4E4F",
"I c #3D3C3D",
"U c #494949",
"Y c #333334",
"T c #262527",
"R c #2F2D2D",
"E c #423932",
"W c #363536",
"Q c #34312E",
"! c #3F3F3F",
"~ c #50453C",
"^ c #383839",
"/ c #4B4037",
"( c #AE998E",
") c #5C5857",
"_ c #8A766E",
"` c #D5BCB0",
/* pixels */
"                                                                ",
"                                                                ",
"                                                                ",
"                                                                ",
"                                                                ",
"                                                                ",
"                                                                ",
"                                                                ",
"                                                                ",
"                                                                ",
"                                                                ",
"                                                                ",
"                                                                ",
"                                                                ",
"                                                                ",
"                                                                ",
"                                                                ",
"                                                                ",
"                                                                ",
"                                                                ",
"                                                                ",
"                                                                ",
"                                                                ",
"                                                                ",
"                                                                ",
"                                                                ",
"                                                                ",
"                                                                ",
"                                                                ",
"                                                                ",
"                                           @                    ",
"                                          X-o                   ",
"                                         O*M:                   ",
"                                        X*B$2                   ",
"                                   O#   4N%o7                   ",
"                                   oq   --X                     ",
"                                   oq  OqO                      ",
"                                  7-;O #&                       ",
"                                  OwW3,#*e7                     ",
"                                   -VQ1sa$#                     ",
"                                   :TTVTVao                     ",
"                                 7z3N^!ZZZ3io&, +=24<X          ",
"                               +<kjlQW!IIIIQ$S1e;$wcvyX         ",
"                              O>8(`(/NMQ!^VNVNS0C$=;Fv9         ",
"                              &!K(((EAmvL^vbvBGLTpo2xF1#        ",
"                             +3IP)J_/vAvNVnAbMHTVG4edHdi        ",
"                             =0IUP!~EVMvBHvCRLLMQG::B^v4        ",
"                             &WIZZWRE/MbBHvvTBHbHC:sAMC*        ",
"                            @yYIZIVR~ECnMHCnMBGFAMu$AFF;6       ",
"                            =1Y^LRTQ~BnCvvCCCvA.AHNMA.F;6       ",
"                            &VTBTNBEECnnSvCCnSnFGvMVM..%7       ",
"                            *BTTLRM~QvCASHCCnCHGbBNTWN.%7       ",
"                           +wTNTRBV~VHFFSMvCnbSCbnSNSWH%7       ",
"                           =h^UJKVR/Mbm.CMMvnbnvGAFnFBV%7       ",
"                          +>DJ)JZQEECFmmAMBvCbbnNBMCFbN0<@      ",
"                          ,8KJJKYV/EHFmmGMMSCbnbMZPUYYZJ5g7     ",
"                          9ZJKJULV~VvAmbSBHSvCnbbVDKPKKKJ5f+    ",
"                         XtDZ!WRVR~NvnAbnBBSSvnbbbYDDPPKKJ5r+   ",
"                         opVVRTHNV/MvnAFnHNSSvvbbbn^DDDDPKKJrO  ",
"                         2VVVLLVvMENHFFFnSNBHSSnbbbS!UDDDPPPK>X ",
"                         <I^WIWRbGTSnmmmAvBNSSvSbbbGNZUUDDDPPK>#",
"                         9ZDKZZIb.mmmmmmAvMTBvvSCbbbbYUUUDDDDPPt",
"                        XuZKKJJInmmmmmmmFbHNNvSvHnnnbv!ZZZZZUUUD",
"                        ,8ZKJ)KIC.....mmFAHBTHvvMvnnbGVYLLQYYWWW"
};
