/* XPM */
static char *fa9339115ca145d7b0d6eefb11ba2098[] = {
/* columns rows colors chars-per-pixel */
"16 16 8 1 ",
"  c yellow",
". c #FFFF01",
"X c #FFFE03",
"o c #FEFF03",
"O c #FFFE04",
"+ c #FEFF04",
"@ c #FEFE06",
"# c #FEFE08",
/* pixels */
"##@@@@ooooo@@@##",
"#@@@@@ooooo@@@##",
"@@@@@ooooooo@@@@",
"@@@ooooooooo@@@@",
"oooooooooooooo@@",
"oooooooooooooo@@",
"oooooooooooooooo",
"oooooooooooooooo",
"oooooooooooooooo",
"oooooooooooooooo",
"@@oooooooooooo@@",
"@@@ooooooooooo@@",
"@@@ooooooooo@@@@",
"@@@@@ooooooo@@@@",
"#@@o@@oooooo@@##",
"##@@@@oooooo@@##"
};
