/* XPM */
static char *d5e09a7f97cb454c8ba9499942329566[] = {
/* columns rows colors chars-per-pixel */
"16 16 94 2 ",
"   c #032737",
".  c #0A2B3C",
"X  c #092D3D",
"o  c #0A2E3E",
"O  c #0A2F3F",
"+  c #0D2E3F",
"@  c #0B3040",
"#  c #0C3040",
"$  c #0E3242",
"%  c #0E3343",
"&  c #0F3343",
"*  c #0F3444",
"=  c #0E3544",
"-  c #103142",
";  c #103444",
":  c #113545",
">  c #113646",
",  c #123646",
"<  c #123747",
"1  c #133747",
"2  c #163748",
"3  c #133848",
"4  c #123948",
"5  c #143848",
"6  c #143949",
"7  c #153949",
"8  c #173849",
"9  c #153A4A",
"0  c #163A4A",
"q  c #163B4B",
"w  c #173B4B",
"e  c #173C4C",
"r  c #18394A",
"t  c #183D4D",
"y  c #193D4D",
"u  c #193E4E",
"i  c #1A3F4F",
"p  c #1C3D4E",
"a  c #1E3F50",
"s  c #1B4050",
"d  c #1C4050",
"f  c #1C4151",
"g  c #1D4151",
"h  c #1D4252",
"j  c #1F4353",
"k  c #1F4454",
"l  c #204152",
"z  c #204454",
"x  c #204555",
"c  c #214555",
"v  c #214656",
"b  c #224656",
"n  c #224757",
"m  c #234757",
"M  c #234A59",
"N  c #244858",
"B  c #244959",
"V  c #254959",
"C  c #274859",
"Z  c #254A5A",
"A  c #244B5A",
"S  c #264A5A",
"D  c #264B5B",
"F  c #274B5B",
"G  c #254C5B",
"H  c #274C5C",
"J  c #264D5C",
"K  c #274E5D",
"L  c #2A4B5C",
"P  c #284C5C",
"I  c #284D5D",
"U  c #294D5D",
"Y  c #2B4C5D",
"T  c #294E5E",
"R  c #284F5E",
"E  c #2A4E5E",
"W  c #2A4F5F",
"Q  c #2B4F5F",
"!  c #29505F",
"~  c #2E4F60",
"^  c #2B5060",
"/  c #2A5160",
"(  c #2C5060",
")  c #2C5161",
"_  c #2D5161",
"`  c #2D5262",
"'  c #2E5262",
"]  c #2E5363",
"[  c #2F5363",
"{  c #2D5463",
"}  c #2F5464",
"|  c #325364",
" . c #305464",
".. c #315867",
/* pixels */
"R G ! { J / k 9 B B R R R R ) j ",
"..G J B M G B k J J R R R R R t ",
"} B ) ) } R B k R R R R ) R R t ",
"x t s t 9 t t 9 t t 9 3 j t j 1 ",
") R B x 9 B B R B B j t J J R B ",
"R ) ) ) s ) R R R R x j R R / ) ",
") ) R ) j  .) ) R ) x j ) J J ! ",
"9 1 1 9 & t 9 9 1 e & X t 1 * 3 ",
"l - x C x x R t e R B J B x x B ",
"C r ) Q R ) ) j e R B R J R B B ",
"x 9 Q B R ) R x j ) Q R R ) R R ",
"& X 9 & 1 & 1 & & 9 9 9 9 * @ 1 ",
"R R R C m 1 R R R B B R R t 9 R ",
"B R B B x X R ) ) B B R R 9 9 ) ",
"B J J R B 1  .) ) B R L ~ a p | ",
"9 3 t t 1   9 1 9 1 2 - 9 + . r "
};
